<?xml version="1.0" standalone="no"?>
<!DOCTYPE svg PUBLIC "-//W3C//DTD SVG 20010904//EN"
 "http://www.w3.org/TR/2001/REC-SVG-20010904/DTD/svg10.dtd">
<svg version="1.0" xmlns="http://www.w3.org/2000/svg"
 width="512.000000pt" height="512.000000pt" viewBox="0 0 512.000000 512.000000"
 preserveAspectRatio="xMidYMid meet">
<metadata>
Created by potrace 1.14, written by Peter Selinger 2001-2017
</metadata>
<g transform="translate(0.000000,512.000000) scale(0.100000,-0.100000)"
fill="#000000" stroke="none">
<path d="M0 2560 l0 -2560 2560 0 2560 0 0 2560 0 2560 -2560 0 -2560 0 0
-2560z m2865 2486 c17 -4 66 -13 110 -22 108 -21 372 -97 465 -133 187 -73
406 -189 548 -291 134 -96 177 -135 345 -305 337 -342 547 -751 660 -1285 31
-143 40 -226 43 -385 5 -244 -16 -448 -67 -643 -11 -42 -26 -102 -34 -132 -13
-51 -61 -179 -97 -260 -45 -100 -110 -230 -135 -270 -16 -25 -37 -60 -48 -79
-95 -161 -330 -427 -522 -590 -55 -46 -176 -135 -229 -168 -222 -137 -362
-208 -551 -279 -267 -100 -366 -120 -713 -144 -376 -27 -732 47 -1125 230 -60
28 -145 76 -188 106 -43 30 -81 54 -83 54 -9 0 -119 84 -127 97 -4 7 -14 13
-22 13 -8 0 -25 10 -39 22 -14 13 -40 34 -58 48 -60 45 -269 254 -327 325
-152 190 -355 513 -386 615 -4 14 -20 53 -36 88 -16 35 -29 71 -29 80 1 24 28
55 75 87 27 19 32 25 16 20 -26 -8 -37 -16 -77 -52 l-25 -23 -8 23 c-5 12 -12
42 -16 67 -4 25 -12 54 -18 65 -11 21 -16 43 -47 205 -77 415 -49 872 80 1259
53 161 61 174 123 217 28 20 43 33 32 29 -44 -16 -55 -17 -55 -5 0 15 81 167
116 219 13 20 24 39 24 44 0 14 139 205 200 276 167 193 408 397 585 495 238
131 348 184 515 246 76 28 273 85 322 94 15 2 65 12 110 22 46 9 115 20 153
25 75 8 490 4 540 -5z"/>
<path d="M2933 4845 c-6 -35 -7 -64 -2 -69 13 -15 20 16 17 75 l-3 54 -12 -60z"/>
<path d="M2651 4813 c-1 -12 -4 -28 -7 -37 -3 -9 -2 -16 4 -16 16 0 22 28 12
52 l-9 23 0 -22z"/>
<path d="M2330 4724 c-223 -34 -351 -66 -510 -126 -30 -11 -68 -26 -85 -32
-66 -24 -264 -132 -349 -189 -220 -147 -536 -458 -649 -637 -79 -127 -163
-293 -158 -314 1 -5 -4 -16 -12 -25 -8 -9 -17 -28 -21 -42 -3 -15 -23 -64 -44
-110 -22 -46 -47 -106 -57 -132 -10 -26 -22 -50 -26 -53 -24 -14 2 -36 111
-95 25 -13 50 -29 56 -34 27 -26 34 -248 8 -297 -8 -16 -35 -38 -63 -53 -38
-19 -51 -31 -56 -55 -8 -37 -1 -47 79 -104 41 -29 76 -45 108 -50 25 -4 51
-13 58 -21 6 -7 12 -55 13 -107 l2 -93 -112 -54 c-83 -40 -113 -60 -115 -75
-5 -26 25 -141 58 -226 54 -139 178 -375 240 -457 13 -17 24 -36 24 -41 0 -5
7 -15 15 -22 8 -7 47 -55 87 -108 182 -242 486 -495 728 -608 107 -50 125 -57
155 -65 16 -4 50 -15 75 -24 216 -80 541 -125 739 -101 25 3 89 8 141 11 106
7 372 68 500 115 203 75 447 222 610 368 42 37 99 85 127 107 28 22 54 49 57
60 3 11 35 49 72 85 59 58 224 285 224 308 0 5 7 15 15 22 9 7 41 64 71 127
53 107 58 113 87 114 31 2 31 2 5 6 -16 2 -28 7 -28 10 0 3 13 33 29 67 41 85
102 271 96 288 -3 8 -29 23 -58 33 -29 10 -67 27 -85 38 l-33 20 6 96 c4 53 9
99 11 103 2 3 32 20 67 36 99 49 188 105 208 132 38 51 59 257 28 275 -4 3
-11 26 -15 52 -7 49 -30 110 -99 267 -8 19 -15 37 -15 40 0 3 -11 29 -24 58
-14 30 -34 78 -46 108 -12 30 -32 73 -44 95 -73 127 -118 219 -108 223 21 7
13 20 -8 15 -11 -3 -20 0 -20 6 0 16 -149 222 -210 290 -16 18 -30 38 -30 42
0 12 -201 214 -285 286 -107 92 -148 118 -360 228 -209 108 -441 174 -730 206
-152 17 -385 23 -455 13z m395 -505 c66 -6 141 -12 168 -14 26 -3 71 -11 100
-19 28 -8 76 -21 105 -30 75 -21 230 -84 274 -112 21 -13 42 -24 47 -24 25 0
360 -269 385 -310 5 -8 20 -25 33 -38 13 -12 23 -27 23 -32 0 -5 10 -17 23
-27 12 -10 46 -49 76 -88 30 -38 58 -71 63 -73 4 -2 8 -8 8 -12 0 -5 23 -48
50 -96 74 -129 135 -289 160 -424 63 -334 47 -646 -44 -855 -92 -211 -261
-493 -329 -551 -20 -17 -28 -31 -24 -44 3 -11 1 -18 -3 -15 -5 3 -26 -13 -47
-36 -21 -23 -47 -49 -58 -58 -10 -9 -49 -44 -85 -77 -36 -34 -92 -76 -125 -94
-33 -19 -69 -41 -80 -50 -66 -57 -317 -168 -460 -204 -172 -43 -287 -56 -460
-52 -95 2 -208 11 -255 20 -47 8 -96 18 -110 20 -109 20 -311 94 -369 135 -14
10 -50 30 -79 45 -89 45 -272 187 -382 296 -83 82 -154 179 -273 375 -70 114
-157 367 -188 545 -20 114 -17 433 6 545 28 143 103 385 129 415 7 8 16 26 19
40 7 27 154 253 169 258 5 2 24 25 44 50 138 182 385 372 594 457 36 14 84 35
107 46 68 31 264 78 328 79 33 0 80 4 105 9 62 12 213 12 355 0z"/>
<path d="M2765 4150 c-3 -5 -1 -10 4 -10 6 0 11 5 11 10 0 6 -2 10 -4 10 -3 0
-8 -4 -11 -10z"/>
<path d="M2808 4053 c6 -2 18 -2 25 0 6 3 1 5 -13 5 -14 0 -19 -2 -12 -5z"/>
<path d="M2410 4034 c-14 -2 -66 -11 -115 -19 -88 -14 -245 -60 -354 -104 -90
-36 -315 -179 -388 -246 -21 -19 -46 -38 -55 -41 -10 -3 -18 -9 -18 -13 0 -4
-26 -28 -58 -53 -47 -36 -61 -54 -71 -89 -7 -24 -30 -69 -51 -99 -114 -159
-152 -254 -217 -530 -19 -81 -12 -423 11 -542 21 -104 47 -211 56 -223 4 -5
10 -23 14 -40 20 -84 155 -316 234 -403 97 -108 203 -209 249 -239 15 -10 38
-27 51 -38 23 -19 80 -53 221 -127 271 -144 671 -186 995 -104 117 30 300 105
396 162 41 25 84 51 95 57 11 7 22 14 25 17 3 3 21 18 40 33 124 100 278 280
375 441 61 100 141 291 151 361 2 17 9 55 14 85 42 226 36 438 -17 665 -8 33
-19 83 -24 110 -14 68 -122 269 -174 326 -53 56 -88 123 -80 150 4 10 10 19
15 19 4 0 10 7 13 15 5 12 1 12 -27 -1 -31 -15 -34 -15 -71 11 -22 14 -42 28
-44 31 -3 2 13 22 34 44 44 45 43 46 -8 25 -39 -16 -87 -20 -87 -7 0 4 -25 27
-56 52 -30 24 -63 57 -72 72 -11 19 -22 26 -34 22 -10 -3 -40 8 -70 26 -141
81 -320 149 -478 180 -57 12 -377 22 -420 14z m393 -118 c136 -27 380 -123
437 -172 8 -7 26 -17 40 -23 45 -20 129 -79 167 -118 12 -13 25 -23 29 -23 4
0 30 -21 58 -46 28 -25 62 -56 75 -68 60 -53 202 -279 241 -382 91 -244 120
-472 90 -704 -19 -146 -25 -165 -101 -326 -10 -23 -19 -49 -19 -58 0 -9 -4
-16 -10 -16 -5 0 -10 -7 -10 -15 0 -19 -97 -166 -117 -178 -7 -4 -13 -12 -13
-18 0 -21 -80 -117 -161 -193 -265 -250 -654 -402 -1004 -391 -132 5 -318 39
-407 76 -92 38 -182 81 -208 99 -14 10 -47 30 -75 45 -27 16 -72 45 -100 66
-78 59 -237 217 -230 229 3 5 1 10 -4 10 -6 0 -11 7 -11 15 0 8 -7 15 -15 15
-8 0 -15 7 -15 15 0 8 -4 15 -10 15 -5 0 -10 7 -10 15 0 8 -4 15 -9 15 -5 0
-24 24 -41 53 -17 28 -35 59 -40 67 -44 68 -113 270 -131 380 -20 123 -21 130
-22 260 -2 211 54 476 127 600 18 30 38 69 46 85 23 48 120 184 160 224 120
118 228 203 340 263 234 127 378 173 630 202 60 7 247 -4 323 -18z"/>
<path d="M2185 3791 c-3 -5 -1 -12 5 -16 5 -3 10 1 10 9 0 18 -6 21 -15 7z"/>
<path d="M2131 3560 c14 -31 19 -36 19 -24 0 6 -7 19 -16 30 -14 18 -14 18 -3
-6z"/>
<path d="M2916 3485 c-9 -26 -7 -32 5 -12 6 10 9 21 6 23 -2 3 -7 -2 -11 -11z"/>
<path d="M3126 3442 c-2 -4 -1 -14 3 -21 6 -9 10 -7 14 8 5 20 -7 29 -17 13z"/>
<path d="M2637 3403 c-2 -4 4 -64 14 -133 10 -69 20 -150 23 -181 3 -30 8 -74
12 -97 4 -28 2 -47 -6 -57 -10 -12 -9 -15 7 -15 30 0 46 -100 108 -673 5 -40
12 -60 24 -66 13 -7 22 -37 35 -108 9 -54 26 -129 36 -168 19 -71 48 -233 52
-295 1 -19 8 -44 15 -55 17 -25 17 -11 -1 85 -8 41 -19 131 -25 200 -6 69 -18
179 -25 245 -8 66 -17 157 -20 202 l-6 82 112 116 c62 64 114 120 116 125 2 5
-22 27 -53 50 -48 36 -61 52 -99 135 -25 52 -54 108 -65 124 -27 37 -19 57 27
70 36 10 36 10 -10 4 l-47 -5 -66 128 c-120 233 -153 295 -158 287z"/>
<path d="M3155 3390 c-3 -5 -1 -10 4 -10 6 0 11 5 11 10 0 6 -2 10 -4 10 -3 0
-8 -4 -11 -10z"/>
<path d="M2427 3336 c-10 -24 -41 -83 -69 -132 -74 -129 -207 -391 -227 -449
-15 -42 -26 -54 -76 -85 -32 -20 -60 -41 -62 -47 -2 -5 50 -64 117 -131 67
-67 120 -128 120 -138 0 -24 -18 -230 -24 -269 -2 -16 -11 -82 -20 -145 -9
-63 -21 -137 -26 -163 -10 -50 -13 -104 -6 -96 8 7 66 357 66 393 0 35 52 116
75 116 9 0 15 23 20 78 6 79 22 253 31 352 6 69 19 142 50 295 13 66 33 181
44 255 30 202 25 259 -13 166z"/>
<path d="M1780 3026 c0 -9 5 -16 10 -16 6 0 10 4 10 9 0 6 -4 13 -10 16 -5 3
-10 -1 -10 -9z"/>
<path d="M1455 2960 c-3 -5 1 -10 9 -10 9 0 16 5 16 10 0 6 -4 10 -9 10 -6 0
-13 -4 -16 -10z"/>
<path d="M1440 2925 c0 -8 7 -15 15 -15 9 0 12 6 9 15 -4 8 -10 15 -15 15 -5
0 -9 -7 -9 -15z"/>
<path d="M3615 2880 c-3 -6 1 -7 9 -4 18 7 21 14 7 14 -6 0 -13 -4 -16 -10z"/>
<path d="M3380 2850 c0 -5 5 -10 11 -10 5 0 7 5 4 10 -3 6 -8 10 -11 10 -2 0
-4 -4 -4 -10z"/>
<path d="M1745 2810 c3 -5 11 -10 16 -10 6 0 7 5 4 10 -3 6 -11 10 -16 10 -6
0 -7 -4 -4 -10z"/>
<path d="M1866 2473 c-106 -110 -169 -184 -161 -191 6 -6 202 199 233 245 13
19 22 35 20 36 -1 1 -43 -40 -92 -90z"/>
<path d="M2546 2521 c-7 -11 0 -180 8 -188 3 -3 6 39 6 95 0 98 -2 113 -14 93z"/>
<path d="M3343 2354 c16 -14 31 -23 34 -20 7 6 -37 45 -52 46 -5 0 3 -12 18
-26z"/>
<path d="M2030 2158 c0 -19 2 -20 10 -8 13 19 13 30 0 30 -5 0 -10 -10 -10
-22z"/>
<path d="M2540 1938 c-4 -343 -1 -543 9 -546 11 -4 15 27 14 93 -1 17 -2 132
-3 258 -1 127 -6 227 -11 227 -5 0 -9 -15 -9 -32z"/>
<path d="M1700 1930 c0 -5 4 -10 9 -10 6 0 13 5 16 10 3 6 -1 10 -9 10 -9 0
-16 -4 -16 -10z"/>
<path d="M1895 1802 c-8 -8 5 -22 21 -22 8 0 14 6 14 13 0 13 -25 19 -35 9z"/>
<path d="M1765 1730 c-3 -5 3 -10 15 -10 12 0 18 5 15 10 -3 6 -10 10 -15 10
-5 0 -12 -4 -15 -10z"/>
<path d="M1830 1715 c0 -9 6 -12 15 -9 8 4 15 7 15 9 0 2 -7 5 -15 9 -9 3 -15
0 -15 -9z"/>
<path d="M2217 1596 c-6 -15 1 -26 15 -26 4 0 8 9 8 20 0 23 -15 27 -23 6z"/>
<path d="M3255 1499 c-4 -6 -5 -13 -2 -16 7 -7 27 6 27 18 0 12 -17 12 -25 -2z"/>
<path d="M3000 1398 c0 -9 5 -20 10 -23 13 -8 13 5 0 25 -8 13 -10 13 -10 -2z"/>
<path d="M3454 3829 c-19 -22 -19 -22 4 -8 12 8 22 17 22 21 0 12 -6 9 -26
-13z"/>
<path d="M4020 2150 c0 -5 5 -10 10 -10 6 0 10 5 10 10 0 6 -4 10 -10 10 -5 0
-10 -4 -10 -10z"/>
<path d="M1320 1600 c0 -5 5 -10 10 -10 6 0 10 5 10 10 0 6 -4 10 -10 10 -5 0
-10 -4 -10 -10z"/>
<path d="M3750 1499 c0 -5 5 -7 10 -4 6 3 10 8 10 11 0 2 -4 4 -10 4 -5 0 -10
-5 -10 -11z"/>
<path d="M2140 1020 c0 -5 5 -10 10 -10 6 0 10 5 10 10 0 6 -4 10 -10 10 -5 0
-10 -4 -10 -10z"/>
<path d="M769 4153 c-15 -15 -35 -41 -45 -57 l-18 -29 24 8 c18 6 6 -10 -41
-56 -70 -68 -109 -119 -90 -119 6 0 11 4 11 8 0 4 32 41 70 81 84 89 100 108
83 97 -22 -12 -14 11 13 43 33 40 27 61 -7 24z"/>
<path d="M528 3742 c-36 -26 -74 -53 -85 -60 -10 -7 9 1 42 18 59 30 140 90
120 89 -5 -1 -40 -22 -77 -47z"/>
<path d="M390 3660 c-8 -5 -12 -11 -9 -14 3 -3 14 1 25 9 21 16 8 20 -16 5z"/>
<path d="M4490 3570 c0 -5 5 -10 11 -10 5 0 7 5 4 10 -3 6 -8 10 -11 10 -2 0
-4 -4 -4 -10z"/>
<path d="M4822 3368 c-14 -14 -16 -38 -2 -38 13 0 32 38 22 44 -5 3 -14 0 -20
-6z"/>
<path d="M255 3230 c-3 -5 -1 -10 4 -10 6 0 11 5 11 10 0 6 -2 10 -4 10 -3 0
-8 -4 -11 -10z"/>
<path d="M4755 3120 c-8 -13 15 -24 27 -12 6 6 4 11 -6 15 -8 3 -18 2 -21 -3z"/>
<path d="M4715 3110 c-3 -5 -1 -10 4 -10 6 0 11 5 11 10 0 6 -2 10 -4 10 -3 0
-8 -4 -11 -10z"/>
<path d="M4950 2936 c0 -9 5 -16 10 -16 6 0 10 4 10 9 0 6 -4 13 -10 16 -5 3
-10 -1 -10 -9z"/>
<path d="M273 2663 c-35 -24 -27 -35 12 -16 19 9 32 20 29 25 -7 11 -15 9 -41
-9z"/>
<path d="M455 2660 c-4 -6 3 -10 14 -10 25 0 27 6 6 13 -8 4 -17 2 -20 -3z"/>
<path d="M400 2479 c0 -5 5 -7 10 -4 6 3 10 8 10 11 0 2 -4 4 -10 4 -5 0 -10
-5 -10 -11z"/>
<path d="M4855 2300 c-3 -5 -1 -10 4 -10 6 0 11 5 11 10 0 6 -2 10 -4 10 -3 0
-8 -4 -11 -10z"/>
<path d="M270 2112 c-25 -19 -48 -43 -53 -55 -7 -18 -6 -18 10 -6 10 8 27 22
37 32 11 9 23 17 28 17 8 0 32 40 26 44 -2 2 -23 -13 -48 -32z"/>
<path d="M340 2084 c0 -31 23 -28 28 4 2 15 -2 22 -12 22 -11 0 -16 -9 -16
-26z"/>
<path d="M4675 1689 c-12 -19 5 -23 22 -6 16 16 16 17 1 17 -9 0 -20 -5 -23
-11z"/>
<path d="M475 1540 c-3 -5 1 -10 10 -10 9 0 13 5 10 10 -3 6 -8 10 -10 10 -2
0 -7 -4 -10 -10z"/>
<path d="M4130 759 c0 -5 5 -7 10 -4 6 3 10 8 10 11 0 2 -4 4 -10 4 -5 0 -10
-5 -10 -11z"/>
<path d="M2220 325 c0 -10 7 -15 18 -13 21 4 19 22 -2 26 -10 2 -16 -3 -16
-13z"/>
</g>
</svg>
